<svg width="150" height="150" viewBox="0 0 150 150" fill="none" xmlns="http://www.w3.org/2000/svg">
<g clip-path="url(#clip0_1_3)">
<rect width="150" height="150" rx="10" fill="#5A6066"/>
<path d="M60 60H130.856H151.5V70H70V153H60V60Z" fill="#8A9B97"/>
<rect x="10" y="10" width="30" height="60" rx="5" fill="#5FE2BF" fill-opacity="0.95"/>
<rect x="10" y="80" width="30" height="80" rx="5" fill="#5FE2BF" fill-opacity="0.95"/>
<rect x="50" y="50" width="30" height="30" rx="5" fill="#D7F6EE"/>
<rect x="50" y="10" width="113" height="30" rx="5" fill="#5FE2BF" fill-opacity="0.95"/>
<rect x="50" y="90" width="30" height="30" rx="5" fill="#D7F6EE"/>
<rect x="50" y="130" width="30" height="30" rx="5" fill="#D7F6EE"/>
<rect x="90" y="50" width="30" height="30" rx="5" fill="#D7F6EE"/>
<rect x="90" y="90" width="69" height="70" rx="5" fill="#5FE2BF"/>
<rect x="100" y="100" width="69" height="70" rx="5" fill="#438674"/>
<rect x="130" y="50" width="30" height="30" rx="5" fill="#D7F6EE"/>
<circle cx="125" cy="125" r="15" fill="#D7F6EE"/>
<path d="M40 60C30.5 53.5 23.5 23.5 10 20V30C30.5 34.5 22 67 35 70C36.0392 70.0052 36.8808 69.6405 37.2331 69.48C38.0168 69.1231 40 68 40 65V60Z" fill="#D7F6EE"/>
<path d="M40 110.677C28 107.546 23.5 127.177 10 130.677V120.677C23 128.677 27 103.177 40 100.177V110.677Z" fill="#D7F6EE"/>
<path d="M40 150.677C28 147.546 23.5 167.177 10 170.677V160.677C23 168.677 7 137.5 40 140.177V150.677Z" fill="#D7F6EE"/>
<path d="M120 10C100 41.5 67.5 13.5 59.5 40L70.5 40C73 24 127.5 40 130 10L120 10Z" fill="#D7F6EE"/>
<path d="M70.5 10C74 20 102 31 110.682 40L99.6821 40C100.5 37 61.5 18 60 10L70.5 10Z" fill="#D7F6EE"/>
<path d="M110.677 10C100.177 33.5 146.5 29 150.859 40L139.859 40C123 28 92.5 38 100.177 10L110.677 10Z" fill="#D7F6EE"/>
<rect x="60" y="60" width="10" height="10" fill="#438674"/>
<rect x="140" y="60" width="10" height="10" fill="#438674"/>
<rect x="100" y="60" width="10" height="10" fill="#438674"/>
<rect x="60" y="100" width="10" height="10" fill="#438674"/>
<rect x="60" y="140" width="10" height="10" fill="#438674"/>
<rect x="60" y="60" width="10" height="10" fill="#438674"/>
</g>
<rect x="2.5" y="2.5" width="145" height="145" rx="7.5" stroke="#7F8489" stroke-width="5"/>
<defs>
<clipPath id="clip0_1_3">
<rect width="150" height="150" rx="10" fill="white"/>
</clipPath>
</defs>
</svg>
